<svg id="Layer_1" data-name="Layer 1" xmlns="http://www.w3.org/2000/svg" xmlns:xlink="http://www.w3.org/1999/xlink" viewBox="0 0 971.1 270.92"><defs><style>.cls-1,.cls-2{fill:#05014a;}.cls-2,.cls-5{font-size:118.33px;}.cls-2{font-family:Inter-Bold, Inter;font-weight:700;letter-spacing:-0.02em;}.cls-3{letter-spacing:-0.01em;}.cls-4{letter-spacing:-0.02em;}.cls-11,.cls-5{fill:#f48c1b;}.cls-5{font-family:Inter-Medium, Inter;font-weight:500;letter-spacing:-0.01em;}.cls-6{letter-spacing:-0.01em;}.cls-7{letter-spacing:-0.03em;}.cls-8{letter-spacing:-0.03em;}.cls-9{letter-spacing:-0.01em;}.cls-10{clip-path:url(#clip-path);}</style><clipPath id="clip-path" transform="translate(-34.92 -408.64)"><path class="cls-1" d="M165.93,506l-.19.73a.06.06,0,0,0,0,0l-2.27-.36Z"/></clipPath></defs><text class="cls-2" transform="translate(420.26 125.08)">P<tspan class="cls-3" x="74.37" y="0">eak</tspan><tspan class="cls-4" x="279.04" y="0">P</tspan><tspan class="cls-3" x="352.78" y="0">ass</tspan></text><text class="cls-5" transform="translate(416.98 231.87) scale(0.99 1)">t<tspan class="cls-6" x="42.81" y="0">r</tspan><tspan class="cls-7" x="86.51" y="0">a</tspan><tspan class="cls-8" x="150.33" y="0">v</tspan><tspan class="cls-9" x="213.91" y="0">el</tspan></text><path class="cls-1" d="M292.89,472.5h0c.7.68,1.41,1.39,2.09,2.09C294.26,473.87,293.57,473.16,292.89,472.5Zm-40.23-20.4a74.41,74.41,0,0,1,12.39,3.23,55.51,55.51,0,0,0-12-3.29Z" transform="translate(-34.92 -408.64)"/><path class="cls-1" d="M358,580.15a124.47,124.47,0,0,1-52.55,68.94l-9.33-3-30.45-38.82-6.57,10-17.43-31.79-.35.63-.35-.63L223.54,617.3l-6.6-10L186.5,646.14l-12.39,3.93a124.67,124.67,0,0,1-50.55-60c-8-1.49-10.87-3.8-12.39-6.07-2.49-3.66-1-7.48-.06-9.77l.35-.88,0,0c.1-.29,1-2.68,3.15-2.39l.12,0h0l2.51.34.48.1,1.81.39,15.58,2c8.87-1.23,9.32-8.28,9.32-8.28L132.23,564l-2.47-.34L116,561.9a124,124,0,0,1-.17-34.18c-3.63-1.12-7.25-2.21-10.81-3.46a135.48,135.48,0,0,0-.49,36.17l-38-4.2L60,559.5l45.89,9.43a135.49,135.49,0,0,0,262.21,16.52A17,17,0,0,1,358,580.15ZM189.06,648.7l27-34-8.4,16.44,8.4-4.38-18.25,28.85,6.93-19.36Zm51.51-35.08-7.68,9.69,7.68,14.78L212.06,648.7l28.51-54.42Zm44.22,42-18.26-28.85,8.39,4.38-8.39-16.44,27,34-15.7-12.43Z" transform="translate(-34.92 -408.64)"/><path class="cls-1" d="M363.28,543.05c0,2.67-.11,5.32-.29,8a17,17,0,0,1,3-1.17c1.47-.42,3-.79,4.43-1.12q2-.42,3.93-.75c.08-1.86.13-3.73.13-5.61,0-1.47,0-2.94-.09-4.4A50.54,50.54,0,0,1,363.28,543.05Z" transform="translate(-34.92 -408.64)"/><path class="cls-1" d="M399,476.57c.18.1.37.19.59.33v0C399.42,476.76,399.23,476.65,399,476.57Z" transform="translate(-34.92 -408.64)"/><path class="cls-1" d="M407.1,485.87c-.05,0-.09-.1-.13-.12a.92.92,0,0,0-.14-.14,37.1,37.1,0,0,0-9.87-8.06c-.21-.14-.39-.24-.56-.34l-.77-.41a3.68,3.68,0,0,0-.35-.15l-.29-.14a44.63,44.63,0,0,0-19.05-3.78,94.59,94.59,0,0,0-22.22,3.07l-.06,0c-3.56.88-7.2,2-10.88,3.14-3.29,1.09-6.58,2.27-9.91,3.5s-6.95,2.68-11,4.27c-32.24,12.68-84.59,34.67-84.59,34.67l-67.05-10.69-16.05-2.53-25.36-4.05-.25,0-4.84-.76h0l-.75-.12-10.3-1.64h0l-43.74-7-31.63,1.19a2.44,2.44,0,0,0-2.35,2.43,2.57,2.57,0,0,0,.56,1.55,2.45,2.45,0,0,0,1.88.9H53.22L60,503l2.41.82,1,.31,1.14.39,5.36,1.8,1.14.4,6.34,2.15,1.29.45,6.19,2.07,1.48.49,6,2,1.7.57,5.79,2,1.86.62,5.62,1.9,2,.71,5.46,1.82,2.21.74,5.29,1.8,2.35.78,5.09,1.73,2.58.88,4.92,1.66,2.72.9,4.75,1.63,2.9,1,4.56,1.54,3.1,1,4.4,1.51,3.25,1.09,4.19,1.41,3.44,1.16,4.06,1.37,3.58,1.23,3.88,1.31,3.79,1.28,3.66,1.25,4,1.33,3.5,1.17,4.15,1.41,3.33,1.14L222.69,558l6.11-3.21a18.28,18.28,0,0,1-5.24-6.37,19.49,19.49,0,0,1-1.43-4c-.08-.29-.14-.61-.2-.9l-.12-.59a12.88,12.88,0,0,1-.07-4.07,18.3,18.3,0,0,1,11.84-15.58c1.49-.53,3-1.06,4.52-1.51a82,82,0,0,1,23.63-3.45h.14a8.7,8.7,0,0,1,1.41-.58,8.35,8.35,0,0,1,2.21-.3c5.23,0,10.51,4.84,12.49,11.85,2.25,8-.67,15.85-6.52,17.52a.34.34,0,0,1-.14,0,70.92,70.92,0,0,1-23.61,10.39c-1.7.43-3.46.79-5.2,1.06a17.46,17.46,0,0,1-10.42-1.47l-9.1,4.82-3.74-1.27-47.42-16.08c-5.26,2.63-16.3,8.09-27.58,13.55-1.66.8-3.33,1.64-4.89,2.49l7.22.94a3.3,3.3,0,0,1,2.35,1.35,3.47,3.47,0,0,1,.69,2.6,14.89,14.89,0,0,1-12.85,12.22,3.93,3.93,0,0,1-.49,0,2.89,2.89,0,0,1-.7-.08l-15.29-1.94-3-.63-.11,0-.77-.19-.49,1.09,0,.08c-1.38,3.43-2.57,6.79,8.28,9.38,5.2,1.23,13.25,2,25.64,2,1,0,2.08,0,3.11,0v0s36.51,2.11,91.86-8.23q6.22-1.14,12.74-2.54c.29-.06.61-.1.9-.18.45-.1.94-.19,1.39-.31q4-.85,8.15-1.82c.64-.14,1.25-.28,1.89-.45h0c6-1.41,12.2-3,18.5-4.68l.08,0,.16,0a376.74,376.74,0,0,0,45.67-17.68l.63-.29c9-4.11,17.91-8.48,26.23-12.78,3.66-1.88,7.18-3.76,10.59-5.6l.06,0c15.44-8.36,28-16,34.41-20.71a22.54,22.54,0,0,0,3.27-2.84C418.67,499.3,410.08,488.92,407.1,485.87Zm-106.32,25.7-3.42-9,5.68-2.17,3.42,8.95ZM312.67,507l-3.43-9,5.68-2.15,3.44,8.95Zm11.88-4.54-3.44-9,5.67-2.17,3.43,9Zm29.5-.3-11.82,3.59-5.4-17.92L346.3,485l3-.91,5.4,17.9ZM371,489l-4.1-9.61c2.47-.47,4.88-.87,7.27-1.22a66.8,66.8,0,0,1,3.42,9C373.35,488.27,371,489,371,489Zm13.46-3.29a71.83,71.83,0,0,0-3-8.48c2.88-.33,5.58-.57,8.05-.76.66,2.66,1.37,5.32,2.07,8C389,484.89,386.61,485.32,384.47,485.75Zm18.37,28.15,0,0,.57-.35C403.21,513.65,403,513.76,402.84,513.9Z" transform="translate(-34.92 -408.64)"/><path class="cls-1" d="M147.32,487.35h-.06l-3.17-4.4C144.71,483.77,145.91,485.42,147.32,487.35Z" transform="translate(-34.92 -408.64)"/><path class="cls-1" d="M152.62,494.7l1.7,2.38-1.74-2.38Z" transform="translate(-34.92 -408.64)"/><path class="cls-1" d="M171.81,491.66c-.41.75-.79,1.51-1.16,2.27A19.8,19.8,0,0,1,171.81,491.66Z" transform="translate(-34.92 -408.64)"/><path class="cls-1" d="M165.93,506l-.19.73a.06.06,0,0,0,0,0l-2.27-.36Z" transform="translate(-34.92 -408.64)"/><g class="cls-10"><polygon class="cls-1" points="131.02 98.03 130.79 98.08 128.53 98.08 128.53 97.31 131.02 97.31 131.02 98.03"/><polygon class="cls-1" points="130.79 98.08 131.02 98.03 131.02 98.08 130.79 98.08"/></g><path class="cls-11" d="M237,508.74s23.12-9.7,45.46-18.81l-.17-.3c-.67-1.26-1.41-2.49-2.19-3.69a48.86,48.86,0,0,0-4.31-5.69q-1.62-1.83-3.4-3.51a50.16,50.16,0,0,0-6.75-5.3A49.14,49.14,0,0,0,246.7,464a50.43,50.43,0,0,0-8.3-.7A49.82,49.82,0,0,0,194.87,489c-.79,1.42-1.52,2.88-2.17,4.38a49.77,49.77,0,0,0-2.33,6.75c-.1.37-.21.75-.3,1.13l9.31,1.48Z" transform="translate(-34.92 -408.64)"/><path class="cls-1" d="M264.38,546.1c-.77.45-1.55.86-2.28,1.26a.22.22,0,0,1-.14.06c-.71.41-1.41.77-2.09,1.12s-1.08.53-1.6.74c-.89.42-1.77.81-2.6,1.14a12,12,0,0,1-1.26.52,57,57,0,0,1-12.58,3.53l-.58.11-.27,0a22.69,22.69,0,0,1-4.69.1c-.25,0-.52-.08-.79-.14a16.7,16.7,0,0,1-2.32-.68,27.77,27.77,0,0,1-7.05-6.89c-1.67-2.36-1.83-5.56-1.87-7.09l.12-1.2c.48-5.75,3.67-10.6,9.05-12.57q2.12-.79,4.32-1.44a77.53,77.53,0,0,1,19.08-3.23c-2.18,3.41-2.86,8.42-1.45,13.49C256.93,540.41,260.43,544.52,264.38,546.1Z" transform="translate(-34.92 -408.64)"/><path class="cls-1" d="M263.82,548.22a.42.42,0,0,1-.12.08l0,0A.22.22,0,0,0,263.82,548.22Z" transform="translate(-34.92 -408.64)"/><path class="cls-1" d="M270,538.77a9.34,9.34,0,0,1-2.83,5.32c-3.81-.37-7.67-4.3-9.23-9.83a15.8,15.8,0,0,1,0-9v0c.07-.21.13-.42.21-.62a3,3,0,0,0,.17-.36c.14-.31.33-.66.51-1,.08-.14.13-.25.19-.37.62-1.1,1.24-2.11,1.24-2.11.76.21,1.43.47,1.86.62l.39.16.32.15a10.37,10.37,0,0,1,3.08,2.36,17.42,17.42,0,0,1,3.68,6.87A17.13,17.13,0,0,1,270,538.77Z" transform="translate(-34.92 -408.64)"/><path class="cls-1" d="M270.27,543.15c3.69-1.45,5.42-7.33,3.76-13.22-1.51-5.37-5.49-9.41-9.26-9.41a4.92,4.92,0,0,0-.86.09,10.14,10.14,0,0,1,4,2.11,16.07,16.07,0,0,1,4.66,16.55A10.17,10.17,0,0,1,270.27,543.15Z" transform="translate(-34.92 -408.64)"/><path class="cls-1" d="M221.55,544l-.12-.59,0,0C221.49,543.58,221.51,543.79,221.55,544Z" transform="translate(-34.92 -408.64)"/><path class="cls-1" d="M148.6,495.62l-5.22-7.22-2.64-3.65a5.15,5.15,0,0,0-.84-.9,5.22,5.22,0,0,0-3.41-1.27,5.3,5.3,0,0,0-1.36.18L130.61,484l-5.39,1.44a4.21,4.21,0,0,0-3.09,4.72l1.54,8.4.19,1,.13.76,3.23.51c4.38.55,7.6,1,11.08,1.54,4.38.68,9.18,1.49,17.2,2.81l-3.59-5Z" transform="translate(-34.92 -408.64)"/><polygon class="cls-1" points="129.94 133.51 126.7 132.41 125.07 131.85 125.07 131.85 123.41 131.28 119.06 129.81 117.61 129.31 117.61 129.31 115.94 128.75 111.42 127.21 110.14 126.78 110.14 126.78 108.48 126.21 103.78 124.61 101.09 123.7 101.02 123.67 96.14 122.01 95.91 121.93 99.48 148.63 128.3 134.64 129.94 133.51"/><path class="cls-1" d="M392.62,575.07l-2,.94c-.93.42-1.84.81-2.73,1.16-.28.12-.57.21-.84.33h0c-14.06,5.6-21.9,3.83-21.9,3.83-.23-.08-.57-.15-.78-.22-7.36-2.37-9-6.56-9.15-7a.06.06,0,0,1,0,0c-.14-.25-.27-.5-.39-.77a11.26,11.26,0,0,1-.48-1.13,14.6,14.6,0,0,1,6.17-17.71,3.29,3.29,0,0,1,.39-.23,13.78,13.78,0,0,1,3.22-1.38c1.42-.41,2.86-.76,4.26-1.07,1.16-.25,2.33-.49,3.51-.68A75.16,75.16,0,0,1,384.43,550c.85,0,1.69,0,2.54,0a12.19,12.19,0,0,0-1.74,2.85,17.55,17.55,0,0,0-1,10.12c0,.14,0,.27.08.39a18,18,0,0,0,3.81,8.16c.25.31.52.6.79.89.12.1.2.21.32.31A11.47,11.47,0,0,0,392.62,575.07Z" transform="translate(-34.92 -408.64)"/><path class="cls-1" d="M401.49,569.21c.09-.18.19-.36.27-.55a15.55,15.55,0,0,0-3.26-16.27,7,7,0,0,0-4.74-2.16,5.29,5.29,0,0,0-.56,0l-.16,0,.28.07.09,0a9.86,9.86,0,0,1,3.63,2.32,15,15,0,0,1,4,7.63,14.79,14.79,0,0,1-.69,8.47l0,.1a9.89,9.89,0,0,1-2.47,3.55l-.06.06-.24.17.16-.05A6.45,6.45,0,0,0,401.49,569.21Z" transform="translate(-34.92 -408.64)"/><path class="cls-1" d="M398.26,568.07h0a16.77,16.77,0,0,0-2.8-13.81,9.88,9.88,0,0,0-2.59-2.33c-.26-.15-.52-.29-.8-.42a7.31,7.31,0,0,0-1.05-.39,7.69,7.69,0,0,0-2.61,3.32,14.47,14.47,0,0,0-.72,8.61c.1.49.22,1,.36,1.43a14.88,14.88,0,0,0,2.35,4.79c.14.19.29.36.43.54s.55.62.84.9a7.57,7.57,0,0,0,3.7,2,8.06,8.06,0,0,0,.8-.74c.21-.23.41-.47.59-.71a9.82,9.82,0,0,0,1.48-3.15S398.25,568.1,398.26,568.07Z" transform="translate(-34.92 -408.64)"/><path class="cls-1" d="M396.35,575.7a.25.25,0,0,0,.13,0,7.6,7.6,0,0,0,2-.67.87.87,0,0,1,.14-.08,5.23,5.23,0,0,0,.71-.44A7.77,7.77,0,0,0,400,574a1.39,1.39,0,0,1,.19-.15,7.84,7.84,0,0,0,.65-.64,1.83,1.83,0,0,1,.16-.13c.15-.2.32-.39.48-.6s.17-.21.25-.33.17-.25.27-.38.29-.45.42-.7h0c.17-.3.33-.61.48-.92l.75.23.6.19.42.14,7.7,2.4.25.08.27.08,8.06,2.31,3,.86.35.12,3.17,1-1.65,2.83-4.49,0-3.38,0-1.23,0-3.53-.11-4.67-.14-3.37-.13-4.81-.2-3.2-.11-.26,0c-1.52-.06-4.32-.19-5.92-.24" transform="translate(-34.92 -408.64)"/><path class="cls-1" d="M305.85,489a90.08,90.08,0,0,0-9.54-12.92c-.45-.51-.92-1-1.37-1.49-.68-.72-1.37-1.43-2.05-2.09-8.91-8.68-18.25-13.24-27.84-17.17a55.51,55.51,0,0,0-12-3.29c-14.33-2.45-33-1-49.32,7.79l-2.19,1.23a81.53,81.53,0,0,0-29.77,30.6,19.8,19.8,0,0,0-1.16,2.27s0,.08,0,.1c-1.92,4.33-4.68,12.06-4.87,12.65l.19-.73-2.48.41-3.62-.56L156,499.35l-1.63-2.27-1.7-2.38-5.3-7.35c-1.41-1.93-2.61-3.58-3.23-4.4l-.2-.25A9.36,9.36,0,0,0,133,479.29l-8.77,2.35a7.66,7.66,0,0,0-5.62,8.59l0,0v0l1.15,6.3c-2.29-.62-4.58-1.27-6.81-2.05A135.46,135.46,0,0,1,346,461l0,0c.6.77,1.15,1.49,1.66,2.18,1.45,1.94,2.84,3.91,4.19,5.93.59.9.84,1.37.84,1.37" transform="translate(-34.92 -408.64)"/><path class="cls-1" d="M163.45,506.36l2.48-.41-.19.73a.06.06,0,0,0,0,0Z" transform="translate(-34.92 -408.64)"/><path class="cls-1" d="M351.83,469.11c-1.35-2-2.74-4-4.19-5.93C349.72,465.9,351.05,467.9,351.83,469.11Z" transform="translate(-34.92 -408.64)"/><path class="cls-1" d="M351.21,570.58a13.47,13.47,0,0,0,.5,1.89s.13.42.38,1.06a3.19,3.19,0,0,0,.14.35c.13.28.27.59.42.94a16.83,16.83,0,0,0,.85,1.52.06.06,0,0,0,0,.06,10.78,10.78,0,0,0,.75,1.11l-1.4-.07a.41.41,0,0,1-.15,0c-.5,0-1,0-1.49-.08l-.53,0-.7,0L344.8,577l-2-.09-1.35-.08-3.91-.21-.82-.06-1.83-.1h-.33l-3.66-.2-.25,0-2-.11L327,576l-3.27-.17-3.18-.19-1.44-.08-6.64-.39-1.29,0-1.5-.08-2.94-.17-2.35-.14-1.1-.08-.81,0-.83,0-4.25-.25-1.08-.08-.92-.06h0l-.44,0h-.08l-.19,0-1.85-.09h-.07a8,8,0,0,0-.91-.06l-.87-.06-.65,0,8.85-2.82.39-.14a272.88,272.88,0,0,0,47.64-22s4.18,1.71,10.74,4.31A17.44,17.44,0,0,0,351.21,570.58Z" transform="translate(-34.92 -408.64)"/></svg>